/* XPM */
static char * luced006_xpm[] = {
"44 32 545 2",
"  	c None",
". 	c #FFFFFF",
"+ 	c #FEFEFF",
"@ 	c #FEFEFE",
"# 	c #F9F9FA",
"$ 	c #FDFDFD",
"% 	c #FCFCFD",
"& 	c #FDFDFE",
"* 	c #FAFAFA",
"= 	c #FAFAFB",
"- 	c #FEFDFF",
"; 	c #FBFBFD",
"> 	c #F6F6F7",
", 	c #FDFDFF",
"' 	c #FAFAFC",
") 	c #FDFCFF",
"! 	c #F5F5F6",
"~ 	c #F9F9FC",
"{ 	c #FAFAFF",
"] 	c #F9F8FF",
"^ 	c #F4F3FC",
"/ 	c #F2F1FA",
"( 	c #F6F5FF",
"_ 	c #F7F7FF",
": 	c #F9F9FF",
"< 	c #FBFBFF",
"[ 	c #FCFCFF",
"} 	c #F4F4FB",
"| 	c #EBEAF7",
"1 	c #E7E6FF",
"2 	c #D7D5FF",
"3 	c #CAC8FB",
"4 	c #C4C1F9",
"5 	c #C8C6FF",
"6 	c #D0CDFF",
"7 	c #DDDCFF",
"8 	c #EBEAFF",
"9 	c #F4F3FF",
"0 	c #FDFAFB",
"a 	c #FEF9FA",
"b 	c #EEEEFD",
"c 	c #DCDAFE",
"d 	c #ADA9F3",
"e 	c #9B96FE",
"f 	c #9C96FF",
"g 	c #A6A1FC",
"h 	c #AAA5F9",
"i 	c #ABA6FF",
"j 	c #A39EFF",
"k 	c #9B96FF",
"l 	c #9E99FF",
"m 	c #C0BDFF",
"n 	c #E5E4FF",
"o 	c #F4F4FF",
"p 	c #FCFCFE",
"q 	c #F7F6FE",
"r 	c #E4E3FF",
"s 	c #B1ACFC",
"t 	c #9993FC",
"u 	c #B2AEF7",
"v 	c #CCC9F9",
"w 	c #D9D7FF",
"x 	c #DCDAFD",
"y 	c #DAD8F8",
"z 	c #DFDDFF",
"A 	c #DCDAFF",
"B 	c #D7D5FE",
"C 	c #C9C6FE",
"D 	c #AAA5FE",
"E 	c #9993FF",
"F 	c #CAC7FF",
"G 	c #ECECFE",
"H 	c #F6F6FC",
"I 	c #F6F6FE",
"J 	c #DFDDFE",
"K 	c #9D98FF",
"L 	c #AEA9FE",
"M 	c #CECBF8",
"N 	c #DCDAFC",
"O 	c #DBD9F3",
"P 	c #E5E3FF",
"Q 	c #E4E2FE",
"R 	c #DFDDF7",
"S 	c #E1DFFD",
"T 	c #DBD9FE",
"U 	c #C6C3FD",
"V 	c #9D98FE",
"W 	c #AFABF8",
"X 	c #E9E8FD",
"Y 	c #E1E0FE",
"Z 	c #9893FE",
"` 	c #B7B3FE",
" .	c #DAD8FF",
"..	c #E1DFFC",
"+.	c #E0DEF9",
"@.	c #DAD9F3",
"#.	c #E0DFFD",
"$.	c #DFDDFC",
"%.	c #D9D8F6",
"&.	c #E0DFFE",
"*.	c #E1DFFF",
"=.	c #E2E0FE",
"-.	c #E3E1FC",
";.	c #E2E0FB",
">.	c #E0DEFD",
",.	c #CCC9F6",
"'.	c #A09BFB",
").	c #B1ADFF",
"!.	c #EDECFF",
"~.	c #F9F8FE",
"{.	c #E7E6FD",
"].	c #A4A0FE",
"^.	c #B7B3FF",
"/.	c #DBDAFE",
"(.	c #E4E3FE",
"_.	c #DBD9F6",
":.	c #D7D4F4",
"<.	c #D7D3F6",
"[.	c #D4D0F1",
"}.	c #DBD8FB",
"|.	c #DCDAFB",
"1.	c #DDDCFC",
"2.	c #DDDCF9",
"3.	c #DBDAF4",
"4.	c #DDDBF9",
"5.	c #D3D1FE",
"6.	c #C5C2FF",
"7.	c #F2F1FE",
"8.	c #6765A4",
"9.	c #C3C2DB",
"0.	c #FBFBFC",
"a.	c #F9F9FB",
"b.	c #F3F2FE",
"c.	c #C1BEFE",
"d.	c #A49FFC",
"e.	c #D7D5FD",
"f.	c #E4E2FF",
"g.	c #DDD8FA",
"h.	c #D6CFF0",
"i.	c #D4CAEC",
"j.	c #D5CAF0",
"k.	c #D0C6E9",
"l.	c #D7CEF5",
"m.	c #D8D1F8",
"n.	c #D8D3F7",
"o.	c #BAB6E0",
"p.	c #615FA3",
"q.	c #605EA1",
"r.	c #6361A4",
"s.	c #615FA4",
"t.	c #5C59A4",
"u.	c #5856A4",
"v.	c #A09ECC",
"w.	c #F8F8FF",
"x.	c #E1E1EE",
"y.	c #6866A4",
"z.	c #6D6CA8",
"A.	c #7D7BB1",
"B.	c #9F9EC6",
"C.	c #DEDEEC",
"D.	c #494792",
"E.	c #B7B6D4",
"F.	c #F7F6FB",
"G.	c #E3E2F8",
"H.	c #9C97FA",
"I.	c #CAC7FD",
"J.	c #E0DFFC",
"K.	c #E2E1FB",
"L.	c #E1DDFC",
"M.	c #DFD8F8",
"N.	c #DDD2F4",
"O.	c #D6C7EB",
"P.	c #D2BFE3",
"Q.	c #D1BDE2",
"R.	c #D3BFE5",
"S.	c #D4C1E9",
"T.	c #D4C5ED",
"U.	c #D6C4E7",
"V.	c #BBACD4",
"W.	c #8986C1",
"X.	c #EFEEFB",
"Y.	c #D9D8E8",
"Z.	c #4F4D96",
"`.	c #B5B4D3",
" +	c #E8E8F2",
".+	c #D4D3E9",
"++	c #B7B5EF",
"@+	c #A39FFC",
"#+	c #D7D5F8",
"$+	c #CDCBEB",
"%+	c #C3C1E7",
"&+	c #CCC6E8",
"*+	c #DDCFF0",
"=+	c #D9C6EA",
"-+	c #D9C4EA",
";+	c #C1AFD7",
">+	c #BDACD6",
",+	c #C1B0D7",
"'+	c #CFBBE1",
")+	c #D0B9DD",
"!+	c #B4A0CA",
"~+	c #C9C8EA",
"{+	c #DAD8F6",
"]+	c #C8C5F4",
"^+	c #9B96F8",
"/+	c #E5E4FD",
"(+	c #DAD9EB",
"_+	c #E7E7F1",
":+	c #F0F0F7",
"<+	c #D2D2E5",
"[+	c #8381B5",
"}+	c #4A4893",
"|+	c #4E4C95",
"1+	c #CCCBE0",
"2+	c #9694C0",
"3+	c #5854B3",
"4+	c #BEBBFD",
"5+	c #7C7AB5",
"6+	c #857DB6",
"7+	c #DBC7E8",
"8+	c #D9C4E7",
"9+	c #B6A5D4",
"0+	c #6963A5",
"a+	c #504D96",
"b+	c #4A4892",
"c+	c #4E4B95",
"d+	c #6863A3",
"e+	c #D3BEDD",
"f+	c #B4A4D3",
"g+	c #CCCAEE",
"h+	c #D4D3F2",
"i+	c #D8D7F5",
"j+	c #CFCDF6",
"k+	c #9F9AFD",
"l+	c #D3D1FF",
"m+	c #D7D7EB",
"n+	c #EFEFF6",
"o+	c #F7F7FB",
"p+	c #7574AD",
"q+	c #7978AF",
"r+	c #9594C0",
"s+	c #6360B4",
"t+	c #CCCAFE",
"u+	c #E2E0FD",
"v+	c #7C7AB4",
"w+	c #857CB5",
"x+	c #DAC6E6",
"y+	c #C4B2DC",
"z+	c #56539A",
"A+	c #7B76AB",
"B+	c #B7AEC8",
"C+	c #AFA5C3",
"D+	c #827BAF",
"E+	c #DFCBE2",
"F+	c #B6A6CF",
"G+	c #9A95EB",
"H+	c #B9B6FF",
"I+	c #D4D3EB",
"J+	c #EFEEF5",
"K+	c #ABABCD",
"L+	c #525097",
"M+	c #6866B5",
"N+	c #D1CFFD",
"O+	c #E1E0FB",
"P+	c #7A78B3",
"Q+	c #857BB5",
"R+	c #D8C4E7",
"S+	c #998CC1",
"T+	c #625F9F",
"U+	c #EFE7EC",
"V+	c #FCF2F3",
"W+	c #FAEEEF",
"X+	c #F1E2E4",
"Y+	c #EEDBE9",
"Z+	c #BDADD6",
"`+	c #6260A2",
" @	c #6462A4",
".@	c #6563A5",
"+@	c #A9A5EA",
"@@	c #B2AEF8",
"#@	c #CECDE6",
"$@	c #ECEBF3",
"%@	c #ADACCE",
"&@	c #514F97",
"*@	c #6A67B4",
"=@	c #D3D1FD",
"-@	c #7673B0",
";@	c #857BB3",
">@	c #D4C0E3",
",@	c #8C82BA",
"'@	c #7471AA",
")@	c #F9EEF0",
"!@	c #FBECEE",
"~@	c #FDF0F1",
"{@	c #FBEFEF",
"]@	c #F2E1EC",
"^@	c #BCACD4",
"/@	c #D5D0F3",
"(@	c #DDDCFB",
"_@	c #E3E1FD",
":@	c #C0BDFD",
"<@	c #AFABFE",
"[@	c #D2D0EA",
"}@	c #FAFAFD",
"|@	c #7E7DB2",
"1@	c #7270AA",
"2@	c #9D9CC5",
"3@	c #5A58A4",
"4@	c #C7C5F4",
"5@	c #C4C1E7",
"6@	c #535098",
"7@	c #877EB6",
"8@	c #D8C3E8",
"9@	c #A497CA",
"0@	c #575599",
"a@	c #E3DCE7",
"b@	c #FAEDEF",
"c@	c #F9F1F2",
"d@	c #EAE0E7",
"e@	c #E7D6E5",
"f@	c #B8A8D1",
"g@	c #D8D2F6",
"h@	c #BDB9FE",
"i@	c #B3AFFF",
"j@	c #D3D2EB",
"k@	c #E2E1EE",
"l@	c #9493BF",
"m@	c #4B4993",
"n@	c #C2C1DA",
"o@	c #56549A",
"p@	c #6362A2",
"q@	c #C7C7DF",
"r@	c #4C4A94",
"s@	c #514F98",
"t@	c #4D4B95",
"u@	c #DAC6E8",
"v@	c #CBBAE1",
"w@	c #6661A3",
"x@	c #5E5C9E",
"y@	c #908EBB",
"z@	c #827FAF",
"A@	c #6864A2",
"B@	c #DAC8E0",
"C@	c #B6A5D3",
"D@	c #535199",
"E@	c #54529A",
"F@	c #6D69C6",
"G@	c #BEBBFF",
"H@	c #D5D4EB",
"I@	c #555399",
"J@	c #4D4B94",
"K@	c #A3A2C8",
"L@	c #605EA0",
"M@	c #F8F8FC",
"N@	c #9E9CC7",
"O@	c #56549C",
"P@	c #56549E",
"Q@	c #9391C7",
"R@	c #504E97",
"S@	c #8A80B6",
"T@	c #D8C4E3",
"U@	c #D7C3E7",
"V@	c #C8B9E0",
"W@	c #8880B8",
"X@	c #5F5CA0",
"Y@	c #514E96",
"Z@	c #58559A",
"`@	c #7F77B1",
" #	c #AD9CC8",
".#	c #4F4D97",
"+#	c #6561C4",
"@#	c #D9D7FD",
"##	c #D9D8EB",
"$#	c #515097",
"%#	c #58569B",
"&#	c #6766A4",
"*#	c #8A89B9",
"=#	c #CBCBE0",
"-#	c #D8D5FF",
";#	c #E4E0FC",
">#	c #DFD7F0",
",#	c #DECDE9",
"'#	c #E2CEEA",
")#	c #D5C2E6",
"!#	c #D5C3E6",
"~#	c #DACAEC",
"{#	c #CDBCDC",
"]#	c #D2C0E3",
"^#	c #D3C0E4",
"/#	c #DAC5E9",
"(#	c #D1C0E0",
"_#	c #DBD3F2",
":#	c #DFDCFB",
"<#	c #E3E2FE",
"[#	c #DEDDFA",
"}#	c #C7C4FB",
"|#	c #9D97FF",
"1#	c #E9E8FF",
"2#	c #FBFAFF",
"3#	c #EAE9FF",
"4#	c #A29DFF",
"5#	c #C1BEFD",
"6#	c #DDDBFA",
"7#	c #E5E0F9",
"8#	c #E4D9F4",
"9#	c #E2D0EC",
"0#	c #DFCBE7",
"a#	c #D9C5E4",
"b#	c #D7C3E5",
"c#	c #C5B1D4",
"d#	c #D4BFE2",
"e#	c #D7C2E1",
"f#	c #DBC9EA",
"g#	c #DDD2F2",
"h#	c #D0CBE8",
"i#	c #DDDBF8",
"j#	c #DBD9FF",
"k#	c #A9A4FF",
"l#	c #F5F5FF",
"m#	c #CDCAFF",
"n#	c #9C97FF",
"o#	c #E6E0F9",
"p#	c #E3D7F2",
"q#	c #DFCDE8",
"r#	c #E0CCE7",
"s#	c #DECAE6",
"t#	c #DEC9E7",
"u#	c #D8C3E2",
"v#	c #CCB7D3",
"w#	c #D9C5E3",
"x#	c #DCCAE7",
"y#	c #D5C9E5",
"z#	c #E0DAF9",
"A#	c #E2DFFC",
"B#	c #D3D1EA",
"C#	c #D9D7F7",
"D#	c #EEEDFF",
"E#	c #D7D4FE",
"F#	c #E3E0FD",
"G#	c #E4DFF8",
"H#	c #E0D6EF",
"I#	c #DFD1EB",
"J#	c #E2D1EC",
"K#	c #DDCBE6",
"L#	c #D8C5E0",
"M#	c #D1C0DB",
"N#	c #D7C9E5",
"O#	c #DCD2ED",
"P#	c #DCD6F2",
"Q#	c #DCDAF4",
"R#	c #C0BEF0",
"S#	c #8F89F5",
"T#	c #F9F9FE",
"U#	c #E8E8FE",
"V#	c #A7A3FE",
"W#	c #D4D2FE",
"X#	c #DCD9F6",
"Y#	c #E3DFF9",
"Z#	c #E0DBF3",
"`#	c #E4DCF5",
" $	c #DCD3ED",
".$	c #D8CFE8",
"+$	c #D4CBE6",
"@$	c #DAD4EE",
"#$	c #E0DDF7",
"$$	c #E1DFF9",
"%$	c #D7D6EF",
"&$	c #DCDBFD",
"*$	c #C9C6FF",
"=$	c #9892FE",
"-$	c #BCB9F3",
";$	c #E6E6F3",
">$	c #FAFAFE",
",$	c #F8F8FE",
"'$	c #E7E6FE",
")$	c #ADA9FF",
"!$	c #9E99FB",
"~$	c #D7D5F9",
"{$	c #DFDDFB",
"]$	c #E3E0FB",
"^$	c #DCD9F2",
"/$	c #DDDAF4",
"($	c #D4D2EB",
"_$	c #DEDCF7",
":$	c #D9D7F6",
"<$	c #D2D0FA",
"[$	c #B3AFF2",
"}$	c #C6C4FF",
"|$	c #EFEFFE",
"1$	c #F2F1F6",
"2$	c #F3F2F5",
"3$	c #FEFDFE",
"4$	c #ECEBFE",
"5$	c #C7C4FA",
"6$	c #9D97FE",
"7$	c #A39EF8",
"8$	c #C0BDFE",
"9$	c #CBC9F1",
"0$	c #D4D2F9",
"a$	c #C7C5EA",
"b$	c #D2D0FB",
"c$	c #C8C5F9",
"d$	c #B3AFF8",
"e$	c #9C97FC",
"f$	c #A09CF2",
"g$	c #DAD8FA",
"h$	c #F3F2FF",
"i$	c #F8F8FA",
"j$	c #F7F6F8",
"k$	c #F3F3FE",
"l$	c #E4E2FB",
"m$	c #C8C5FC",
"n$	c #AAA6FE",
"o$	c #9A94FE",
"p$	c #928EED",
"q$	c #9D98FB",
"r$	c #928DE9",
"s$	c #9A94FD",
"t$	c #9B96FB",
"u$	c #B3AFFC",
"v$	c #D2D0F8",
"w$	c #EBEAFC",
"x$	c #EBEAF2",
"y$	c #FCFBFE",
"z$	c #FCFBFF",
"A$	c #F5F5FA",
"B$	c #F5F4FE",
"C$	c #E7E5FE",
"D$	c #D1CFEC",
"E$	c #DBDAFC",
"F$	c #C8C7E8",
"G$	c #E8E7FD",
"H$	c #F2F1FF",
"I$	c #F1F1F8",
"J$	c #F4F4F7",
"K$	c #F6F6F8",
"L$	c #FBFBFE",
"M$	c #EBEBEF",
"N$	c #F8F8FD",
"O$	c #E6E6EC",
"P$	c #F3F3F4",
"Q$	c #F0F0F1",
"R$	c #EDEDEF",
"S$	c #F8F8F9",
"T$	c #EFEFF1",
". . . . . . . . . + + + + + @ # $ + + + % & + + + + + + + + + + + + + . . . . . . . . . ",
". . . . . . . . . + + + + + + * = + + - ; % - - - + + + + + + + + + + + . . . . . . . . ",
". . . . . . . . @ @ + + + + + % > , , , ' ' ) , , , , - + + + + + + + + + . . . . . . . ",
". . . . . . + @ @ @ @ + + + , , ! ~ { ] ^ / ( _ : < [ , , , + + + + + + + + . . . . . . ",
". . . . . + + + @ @ @ @ - , ) < } | 1 2 3 4 5 6 7 8 9 : [ , 0 a + + + + + + + . . . . . ",
". . . . + + + + + @ @ & & [ : b c d e f g h i j k l m n o { ) , - + + + + + + . . . . . ",
". . . . + + + + + + & & p q r s t u v w x y z A B C D E F G H [ , - + + + + + + . . . . ",
". . . + + + + + + - , [ I J K L M N O P Q R P P P S T U V W X : ) , + + + + + + . . . . ",
". . . + + + + + + , [ _ Y Z `  ...+.@.#.$.%.&.*.=.-.;.>.,.'.).!.{ , , + + + + + + . . . ",
". . . + @ & % & , , ~.{.].^./.(.r _.y :.<.[.}.c |.1.2.3.4.5.K 6.7.[ , + + + + + + . . . ",
"8.8.9.+ + @ $ 0.a.~ b.c.d.e.f.(.>.g.h.i.j.k.l.m.n.o.p.q.r.s.t.u.v.w.x.8.8.y.z.A.B.C.+ . ",
"D.D.E.+ + + + - p F.G.H.I.J.K.L.M.N.O.P.Q.R.S.T.U.V.D.D.D.D.D.D.W.X.Y.D.D.D.D.D.D.Z.`.@ ",
"D.D.E.+ + + + ,  +.+++@+#+$+%+&+*+=+-+Q.;+>+,+'+)+!+D.D.~+{+{+]+^+/+(+D.D._+:+<+[+}+|+1+",
"D.D.E.+ + + + , 2+D.3+4+>.5+D.6+7+8+9+0+a+b+c+d+e+f+D.D.g+h+i+j+k+l+m+D.D.n++ + o+p+D.q+",
"D.D.E.+ + + + , r+D.s+t+u+v+D.w+x+y+z+D.A+B+C+D+E+F+D.D.D.D.D.D.G+H+I+D.D.J+& & & K+D.L+",
"D.D.E.@ @ @ @ & r+D.M+N+O+P+D.Q+R+S+D.T+U+V+W+X+Y+Z+D.D.`+ @.@.@+@@@#@D.D.$@0.% % %@D.&@",
"D.D.E.+ + + + , r+D.*@=@;.-@D.;@>@,@D.'@)@!@~@{@]@^@D.D./@(@_@>.:@<@[@D.D.n++ + }@|@D.1@",
"D.D.E.@ @ @ @ , 2@D.3@4@5@6@D.7@8@9@D.0@a@b@c@d@e@f@D.D.g@J r *.h@i@j@D.D.n+}@k@l@m@m@n@",
"D.D.&@o@o@o@p@, q@r@D.s@Z.t@D.7@u@v@w@D.x@y@z@A@B@C@D.D.D@E@E@E@F@G@H@D.D.I@I@Z.D.J@K@% ",
"L+L+L+L+L+L+L@, M@N@O@P@Q@5+R@S@T@U@V@W@X@Y@Z@`@U@ #Z.R@R@R@R@.#+#@###$#L+L+%#&#*#=#& . ",
". . + + + + + , ) _ l+K -#;#>#,#'#7+)#!#~#{#]#^#Q./#(#_#:#<#[#}#|#1#{ , + + + + + + . . ",
". . + + + + + - , 2#3#4#5#6#7#8#9#0#a#b#=+Q.c#d#e#f#g#h#i#P j#k#m 9 [ , + + + + + + . . ",
". . + + + + + + , [ l#m#n#5._@o#p#q#r#s#t#u#v#w#x#y#z#A#B#C#6.f n : , , + + + + + . . . ",
". . + + + + + + - , < D#^.].E#F#G#H#I#J#K#L#M#N#O#P#Q#P J R#S#5.l#[ , + + + + + + . . . ",
". . . + + + + + + , , T#U#V#k#W#X#Y#Z#`# $.$+$@$#$$$%$&$*$=$-$;$>$, - + + + + + + . . . ",
". . . + + + + + + + & p ,$'$)$!$}#~${$]$^$/$($_$..:$<$[$E }$|$1$2$p + + + + + + . . . . ",
". . . . + + + + + @ 3$& ) : 4$5$6$7$8$N+9$0$a$b$c$d$e$f$g$h$< ) i$j$& + + + + + . . . . ",
". . . . . + + @ @ @ @ - , [ M@k$l$m$n$o$p$q$r$s$t$u$v$w$x$>$, , - % 0.+ + + + . . . . . ",
". . . . . + + @ + + + + + , y$z$A$B$b C$D$E$F$S G$H$I$>$J$K$, + + + + + + + . . . . . . ",
". . . . . . . + + + + + + + , ; ' [ L$>$M$N$O$N$< [ ~ a.p P$% + + + + + + . . . . . . . ",
". . . . . . . + + + + + + + + % & , , p Q$p R$' , , p a.+ = S$+ + + + + + . . . . . . . ",
". . . . . . . . + + + + + + + & + + - ; Q$& T$' , - & = & & > & + + + + . . . . . . . . "};
