/* XPM */
static char * luced007_xpm[] = {
"32 32 468 2",
"  	c None",
". 	c #FFFFFF",
"+ 	c #FEFEFF",
"@ 	c #FDFDFD",
"# 	c #FCFCFD",
"$ 	c #FDFDFE",
"% 	c #F8F9F8",
"& 	c #FFFFFE",
"* 	c #FEFEFE",
"= 	c #F7F7F8",
"- 	c #FCFBFC",
"; 	c #FFFDFF",
"> 	c #FDFDFF",
", 	c #FCFCFE",
"' 	c #FAF9FB",
") 	c #FEFDFF",
"! 	c #FBFCFC",
"~ 	c #F5F6F5",
"{ 	c #F8F8F8",
"] 	c #F5F3F2",
"^ 	c #FCFCFF",
"/ 	c #F0F0F5",
"( 	c #F8F8FF",
"_ 	c #FBFCFF",
": 	c #FEFDFE",
"< 	c #FEFAFA",
"[ 	c #FEFFFF",
"} 	c #EFEEF8",
"| 	c #C4C1F8",
"1 	c #938FFF",
"2 	c #847EFF",
"3 	c #827CF3",
"4 	c #867FFF",
"5 	c #837CFF",
"6 	c #938EFF",
"7 	c #C6C4FF",
"8 	c #F3F2FF",
"9 	c #FFFEFF",
"0 	c #FDF9FB",
"a 	c #FFFDFE",
"b 	c #F7F6FF",
"c 	c #B8B5FB",
"d 	c #807AFF",
"e 	c #928DF0",
"f 	c #CBC8FF",
"g 	c #DDDAFF",
"h 	c #DAD7F3",
"i 	c #E3E1FF",
"j 	c #DCDAFD",
"k 	c #CAC7FD",
"l 	c #9792FF",
"m 	c #8078FF",
"n 	c #BBB8FF",
"o 	c #F7F7FF",
"p 	c #FFFFFC",
"q 	c #F1F1FE",
"r 	c #908BFF",
"s 	c #9893FF",
"t 	c #D6D2FA",
"u 	c #E0DEF2",
"v 	c #E9E7FD",
"w 	c #ECEAFF",
"x 	c #E1DFF4",
"y 	c #EAE9FF",
"z 	c #EAE8FF",
"A 	c #EBEAFF",
"B 	c #E8E6FC",
"C 	c #D9D6FE",
"D 	c #9A93FF",
"E 	c #8E87FC",
"F 	c #EAE9F8",
"G 	c #F1F0FF",
"H 	c #8780FE",
"I 	c #ADA8FE",
"J 	c #E6E4FF",
"K 	c #E5E2F8",
"L 	c #E5E4FB",
"M 	c #DCDAF3",
"N 	c #E1E1FF",
"O 	c #D8D6F3",
"P 	c #E1E0FF",
"Q 	c #E2E0FF",
"R 	c #E4E1FE",
"S 	c #E6E6FE",
"T 	c #E6E6FB",
"U 	c #E2E1FD",
"V 	c #AAA5F4",
"W 	c #8780FF",
"X 	c #FBFBFC",
"Y 	c #FDFCFE",
"Z 	c #F7F8FC",
"` 	c #9E99FE",
" .	c #ABA7FF",
"..	c #E6E4FE",
"+.	c #EBEBFE",
"@.	c #D5D4F4",
"#.	c #D4D3F2",
"$.	c #D8D6F8",
"%.	c #D1CFEF",
"&.	c #DCD9FE",
"*.	c #DCDAFF",
"=.	c #DCDBFC",
"-.	c #DCDAF9",
";.	c #E1DFFB",
">.	c #DBD9ED",
",.	c #E6E5FF",
"'.	c #ACA8FF",
").	c #9F9AFF",
"!.	c #F9FAFE",
"~.	c #F7F8F8",
"{.	c #FCFCFC",
"].	c #D1CFFF",
"^.	c #8B83FC",
"/.	c #E0DFFC",
"(.	c #EBE9FF",
"_.	c #E4E3FF",
":.	c #DFDCFE",
"<.	c #DAD3F6",
"[.	c #D4C9EA",
"}.	c #D4C6EC",
"|.	c #CDBFE3",
"1.	c #D8CBF5",
"2.	c #DAD2F9",
"3.	c #E1DAFA",
"4.	c #E7DFFB",
"5.	c #E3E4FD",
"6.	c #FAF8FF",
"7.	c #8D87FF",
"8.	c #DEDCFF",
"9.	c #5F5D9F",
"0.	c #9695C1",
"a.	c #F9F9FA",
"b.	c #918DF7",
"c.	c #C8C5F7",
"d.	c #EAE9FE",
"e.	c #E2E1FA",
"f.	c #DFDBFA",
"g.	c #DFD5F6",
"h.	c #DCCBF0",
"i.	c #D2BCE2",
"j.	c #D0BADF",
"k.	c #D3BDE2",
"l.	c #D4BEE6",
"m.	c #DAC5ED",
"n.	c #A190C1",
"o.	c #61599B",
"p.	c #6260A5",
"q.	c #5C5AA0",
"r.	c #54539A",
"s.	c #D1CFEC",
"t.	c #A9A5E2",
"u.	c #4C49A3",
"v.	c #6967A3",
"w.	c #6E6DA7",
"x.	c #9897C2",
"y.	c #F9FAFD",
"z.	c #141171",
"A.	c #6764A3",
"B.	c #9088FF",
"C.	c #F4F3FF",
"D.	c #F2F2FF",
"E.	c #ECE6FD",
"F.	c #EFE3FB",
"G.	c #EDD5F3",
"H.	c #E1CBEC",
"I.	c #E2CDF0",
"J.	c #EED6ED",
"K.	c #F9E1EE",
"L.	c #F6DFEE",
"M.	c #F4DDF2",
"N.	c #8A7FB7",
"O.	c #23257B",
"P.	c #948FC4",
"Q.	c #A9A7D8",
"R.	c #A4A3D2",
"S.	c #E9E8FC",
"T.	c #A4A2D0",
"U.	c #201E74",
"V.	c #9D9ACB",
"W.	c #B8B7D6",
"X.	c #4D4A93",
"Y.	c #1A1775",
"Z.	c #DDDDEA",
"`.	c #1B1976",
" +	c #6D6CA8",
".+	c #C6C3FF",
"++	c #7E7AE3",
"@+	c #161466",
"#+	c #9696C8",
"$+	c #FCF3FF",
"%+	c #27277C",
"&+	c #403E8C",
"*+	c #F3DBF7",
"=+	c #B5A5CE",
"-+	c #3C3C8B",
";+	c #101272",
">+	c #191B77",
",+	c #E3CFE0",
"'+	c #9A8DBD",
")+	c #2A2B80",
"!+	c #E3D4F8",
"~+	c #FBF9FF",
"{+	c #AAA8D7",
"]+	c #201E75",
"^+	c #C8C7F3",
"/+	c #383588",
"(+	c #4E4D95",
"_+	c #B6B1FF",
":+	c #A29FED",
"<+	c #252473",
"[+	c #A4A1CF",
"}+	c #FFF6FF",
"|+	c #393788",
"1+	c #534F99",
"2+	c #F7E2FC",
"3+	c #2F2E82",
"4+	c #5D5C9D",
"5+	c #F5EBEA",
"6+	c #FFF5EE",
"7+	c #A094BE",
"8+	c #26277E",
"9+	c #242479",
"0+	c #0D0D69",
"a+	c #15136F",
"b+	c #A9A7D4",
"c+	c #1F1D73",
"d+	c #B1AFE7",
"e+	c #6865A4",
"f+	c #1F1D7A",
"g+	c #AFAAFF",
"h+	c #A8A3ED",
"i+	c #252474",
"j+	c #ABA8D4",
"k+	c #FFF9FF",
"l+	c #3C3A89",
"m+	c #535098",
"n+	c #DFCDE8",
"o+	c #21237A",
"p+	c #A5A1C5",
"q+	c #FFF8F6",
"r+	c #A89EC5",
"s+	c #25277E",
"t+	c #DCC7EB",
"u+	c #F8ECFF",
"v+	c #ECEBFF",
"w+	c #F8F7FF",
"x+	c #AEABED",
"y+	c #504E96",
"z+	c #373487",
"A+	c #1F1D78",
"B+	c #7E7DB2",
"C+	c #C8C3FF",
"D+	c #ABA8F2",
"E+	c #282776",
"F+	c #9693C5",
"G+	c #EADBF5",
"H+	c #323285",
"I+	c #54519A",
"J+	c #FAE7FF",
"K+	c #2E2E82",
"L+	c #5E5D9E",
"M+	c #FBF2F3",
"N+	c #FFFFF9",
"O+	c #9D93BD",
"P+	c #26287E",
"Q+	c #E1CBF0",
"R+	c #FFF3FF",
"S+	c #F7F4FF",
"T+	c #ADABD9",
"U+	c #272478",
"V+	c #C9C7FB",
"W+	c #A7A6CA",
"X+	c #131071",
"Y+	c #A2A3C9",
"Z+	c #09066B",
"`+	c #0F0D6F",
" @	c #040167",
".@	c #000060",
"+@	c #23208A",
"@@	c #B4AFFF",
"#@	c #5E5D9C",
"$@	c #191972",
"%@	c #776FAC",
"&@	c #2B2B7F",
"*@	c #3E3E8B",
"=@	c #EFDBF8",
"-@	c #B9B0D8",
";@	c #3E3E8C",
">@	c #0F1172",
",@	c #1A1C78",
"'@	c #E2D7E6",
")@	c #897FB5",
"!@	c #161A74",
"~@	c #171972",
"{@	c #0B0C69",
"]@	c #00005F",
"^@	c #C1BEE3",
"/@	c #A19FCA",
"(@	c #18166B",
"_@	c #17156C",
":@	c #12106E",
"<@	c #3A3788",
"[@	c #AAA9CC",
"}@	c #928CFF",
"|@	c #F8F6FF",
"1@	c #FFF2FF",
"2@	c #F3DCEE",
"3@	c #ECD3EE",
"4@	c #E3D0F2",
"5@	c #DDCCED",
"6@	c #F6EAFC",
"7@	c #FBEEF7",
"8@	c #F1E3F0",
"9@	c #EAD7EE",
"0@	c #E2CCF1",
"a@	c #E4CAE7",
"b@	c #F9E4FE",
"c@	c #FDF4FF",
"d@	c #EFEEFF",
"e@	c #F4F2FF",
"f@	c #9991FF",
"g@	c #FAFBFF",
"h@	c #8F89FF",
"i@	c #C9C7FE",
"j@	c #E7E5FA",
"k@	c #E0D9F0",
"l@	c #E3D1EE",
"m@	c #E5CEEA",
"n@	c #D8C3E7",
"o@	c #D2BFE3",
"p@	c #D7C4EB",
"q@	c #CAB8DC",
"r@	c #CBB8DF",
"s@	c #D0BCE4",
"t@	c #D4BFE2",
"u@	c #DDC9ED",
"v@	c #CEC2E0",
"w@	c #DDD9FA",
"x@	c #E7E6FF",
"y@	c #EDEBFF",
"z@	c #C8C5FB",
"A@	c #D2CEFF",
"B@	c #8781FE",
"C@	c #E0DFFF",
"D@	c #EBEAFE",
"E@	c #E7DDF7",
"F@	c #E1CEEB",
"G@	c #E0C9E2",
"H@	c #DCC6E3",
"I@	c #DECAEA",
"J@	c #D4BFE3",
"K@	c #C4B0D0",
"L@	c #DBC4E4",
"M@	c #D8C3E1",
"N@	c #DCCEEC",
"O@	c #E3DDFD",
"P@	c #CCCBE4",
"Q@	c #E4E3F8",
"R@	c #E3E2FF",
"S@	c #8983FF",
"T@	c #D2CFFF",
"U@	c #FAF9FF",
"V@	c #A39EFF",
"W@	c #A9A5FE",
"X@	c #EBE8FE",
"Y@	c #E4DCF5",
"Z@	c #E0D0E9",
"`@	c #DEC9E4",
" #	c #E6D0EA",
".#	c #D7C1DB",
"+#	c #CFBAD4",
"@#	c #D7C4E2",
"##	c #DDD1EC",
"$#	c #D2CBE7",
"%#	c #E7E5FF",
"&#	c #ECECFF",
"*#	c #D4D2EB",
"=#	c #A5A1F4",
"-#	c #A09BFF",
";#	c #FBFAFF",
">#	c #F2F1FE",
",#	c #B0ACFF",
"'#	c #E6E3FF",
")#	c #E4E2F5",
"!#	c #E4DFF6",
"~#	c #E3DAF4",
"{#	c #E6DBF5",
"]#	c #CFC4DC",
"^#	c #D4CAE4",
"/#	c #DCD4F0",
"(#	c #E1DDF6",
"_#	c #E3E3FA",
":#	c #DDDDF0",
"<#	c #E8E6FF",
"[#	c #B2AEFF",
"}#	c #7F78F1",
"|#	c #E3E2F0",
"1#	c #EFEFFE",
"2#	c #8F8AFF",
"3#	c #9892F9",
"4#	c #D7D6FE",
"5#	c #E2E1F6",
"6#	c #E8E7FC",
"7#	c #DBD8EE",
"8#	c #D7D6EB",
"9#	c #E8E7FE",
"0#	c #E3E4F8",
"a#	c #CECBF0",
"b#	c #9793FC",
"c#	c #F0EFFF",
"d#	c #F7F6F5",
"e#	c #F1F1F1",
"f#	c #F6F5FD",
"g#	c #B9B5FA",
"h#	c #8179FD",
"i#	c #9891FB",
"j#	c #CBC9FF",
"k#	c #D6D5FA",
"l#	c #D7D6F4",
"m#	c #CDCCE8",
"n#	c #DAD8FD",
"o#	c #C6C3FA",
"p#	c #9793F5",
"q#	c #8179FF",
"r#	c #B0ADED",
"s#	c #F9F8FF",
"t#	c #F8F9FB",
"u#	c #F5F5F5",
"v#	c #FCFCFB",
"w#	c #EEECF7",
"x#	c #9691FF",
"y#	c #7D77F5",
"z#	c #817BF5",
"A#	c #7670E5",
"B#	c #857FFF",
"C#	c #918AFC",
"D#	c #C4C2FB",
"E#	c #F1F0FC",
"F#	c #F6F5F4",
"G#	c #F9F9F8",
"H#	c #FDFEFF",
"I#	c #FAFAFB",
"J#	c #FEFEFD",
"K#	c #FDFEFD",
"L#	c #FCFBFA",
"M#	c #F1EFF1",
"N#	c #F5F5FA",
"O#	c #E0E0E4",
"P#	c #FCFDFF",
"Q#	c #F8F8F7",
"R#	c #EEEEF0",
"S#	c #FCFDFE",
"T#	c #F1F1F2",
"U#	c #EBEBEB",
"V#	c #FDFEFE",
"W#	c #F8F8FA",
"X#	c #F5F5F6",
"Y#	c #FEF8F8",
"Z#	c #EFEFF0",
"`#	c #EFEFEF",
" $	c #FAFAFC",
".$	c #F6F6F7",
"+$	c #F3F3F3",
"@$	c #F8F8F9",
"#$	c #F6F6F5",
"$$	c #F7F7F6",
"%$	c #FBFBFB",
"&$	c #FAFAFA",
". . . . . . + + + @ # + + + + + + + + + + + + + + + . . . . . . ",
". . . . + + + + + $ % & + + $ $ + + + + + + + + + + + + . . . . ",
". . . . * + + + + . = - ; > , ' + > > ) + + + + + + + + + . . . ",
". . . * * * + + + . ! ~ . + + { . . > + > > + + + + + + + + . . ",
". + + * * * * + ) + . ] . . ^ / ( _ . . . + + : < [ + + + + + . ",
". + + + * * * > + . . } | 1 2 3 4 5 6 7 8 . . 9 0 [ + + + + + . ",
"+ + + + + * $ a . b c d e f g h i j k l m n o p + > + + + + + + ",
"+ + + + + > ; & q r s t u v w x y z A B C D E F . ; > + + + + + ",
"+ + + + ) + . G H I J K L M N O P Q R S T U V W G . + ) + + + + ",
"* $ X Y + . Z `  ...+.J @.#.$.%.&.*.=.-.;.>.,.'.).!.. + . . + + ",
"+ . . . ~.{.].^./.(._.:.<.[.}.|.1.2.3.4.5.( 6.(.7.8.. . . . . + ",
"+ 9.0.. . a.b.c.d.e.f.g.h.i.j.k.l.m.n.o.p.q.r.s.t.u.v.w.x.y.. + ",
"+ z.A.. . w B.C.D.E.F.G.H.I.J.K.L.M.N.O.P.Q.R.S.T.U.V.W.X.Y.Z.+ ",
"+ `. +. . .+++@+#+$+%+&+*+=+-+;+>+,+'+)+!+. ~+. {+]+^+. . /+(++ ",
"* `. +. . _+:+<+[+}+|+1+2+3+4+. 5+6+7+8+9+0+a+~+b+c+d++ . e+f+X ",
"+ `. +. . g+h+i+j+k+l+m+n+o+p+. q+& r+s+t+u+v+w+b+c+x+. . y+z++ ",
"* A+B+. . C+D+E+F+G+H+I+J+K+L+& M+N+O+P+Q+R+S+. T+U+V+. W+X+Y++ ",
"+ Z+`+ @.@+@@@#@$@%@&@*@=@-@;@>@,@'@)@!@~@{@]@^@/@(@_@:@<@[@. + ",
"+ . . . . + }@|@. 1@2@3@4@5@6@7@8@9@0@a@b@c@d@e@G f@. . . . . + ",
"+ + + > . g@h@i@j@k@l@m@n@o@p@q@r@s@t@u@v@w@x@y@z@h@g@. > + + + ",
"+ + + ) + . A@B@C@D@E@F@G@H@I@J@K@L@M@N@O@P@Q@R@S@T@. + ) + + + ",
"+ + + + > . U@V@W@,.X@Y@Z@`@ #.#+#@###$#%#&#*#=#-#;#. > + + + + ",
"+ + + + ) + . >#H ,#'#)#!#~#{#]#^#/#(#_#:#<#[#}#|#. . ) + + + + ",
"+ + + + + $ & . 1#2#3#4#5#A 6#7#8#Q@9#0#a#b#r c#d#e#+ . + + + + ",
"+ + + + * * > 9 . f#g#h#i#j#k#l#m#n#o#p#q#r#s#. . t#u#$ + + + + ",
". + + * * + + > ; v#. w#.+x#y#z#A#B#C#D#E#F#G#. H#. # I#+ + + . ",
". . + J#+ + + + > $ K#L#. . M#N#O#P#& . Q#. R#> . + . . + + + . ",
". . . + + + + + + . I#S#) . T#& U#V#+ . W#+ I#X#. + + + + + . . ",
". . . + + Y#+ + + + $ . ) . Z#; `# $+ ; {.I#. .$# . + + + . . . ",
". . . . + + + + + + + + + . e#. +$a.. + . X . $ @$. + + . . . . ",
". . . . . . + + + + + + + . #$. $$@$. + + @ + . X $ . . . . . . ",
". . . . . . . + + + + + + + %$* &$I#+ + + + + + + . . . . . . . "};
